<svg width="81" height="81" viewBox="0 0 81 81" fill="none" xmlns="http://www.w3.org/2000/svg">
<path d="M34.4167 4H10.0833C8.46993 4 6.92261 4.64092 5.78177 5.78177C4.64092 6.92261 4 8.46993 4 10.0833V54.6944C4 56.3078 4.64092 57.8552 5.78177 58.996C6.92261 60.1369 8.46993 60.7778 10.0833 60.7778H70.9167C72.5301 60.7778 74.0774 60.1369 75.2182 58.996C76.3591 57.8552 77 56.3078 77 54.6944V34.4167M40.5 60.7778V77" stroke="black" stroke-width="8" stroke-linecap="round" stroke-linejoin="round"/>
<path d="M56.7222 4L48.6111 12.1111L56.7222 20.2222M68.8888 4L76.9999 12.1111L68.8888 20.2222M20.2222 77H60.7777" stroke="black" stroke-width="8" stroke-linecap="round" stroke-linejoin="round"/>
</svg>
