<svg width="96" height="79" viewBox="0 0 96 79" fill="none" xmlns="http://www.w3.org/2000/svg">
<path d="M4.36364 79C3.12727 79 2.09164 78.5787 1.25673 77.736C0.418909 76.8963 0 75.8546 0 74.6111C0 73.3676 0.418909 72.326 1.25673 71.4862C2.09164 70.6436 3.12727 70.2222 4.36364 70.2222H91.6364C92.8727 70.2222 93.9084 70.6436 94.7433 71.4862C95.5811 72.326 96 73.3676 96 74.6111C96 75.8546 95.5811 76.8963 94.7433 77.736C93.9084 78.5787 92.8727 79 91.6364 79H4.36364ZM13.0909 65.8333C10.6909 65.8333 8.63709 64.9746 6.92946 63.2571C5.21891 61.5366 4.36364 59.4694 4.36364 57.0556V8.77778C4.36364 6.36389 5.21891 4.29672 6.92946 2.57628C8.63709 0.858759 10.6909 0 13.0909 0H82.9091C85.3091 0 87.3644 0.858759 89.0749 2.57628C90.7825 4.29672 91.6364 6.36389 91.6364 8.77778V57.0556C91.6364 59.4694 90.7825 61.5366 89.0749 63.2571C87.3644 64.9746 85.3091 65.8333 82.9091 65.8333H13.0909ZM13.0909 57.0556H82.9091V8.77778H13.0909V57.0556Z" fill="black"/>
<path d="M68.4089 25.4147C71.1006 22.7232 69.8732 19.5795 68.4089 18.0507L61.9489 11.591C59.2357 8.8995 56.1133 10.1268 54.5845 11.591L50.9238 15.273H45.3467C41.2553 15.273 38.8867 17.4263 37.6808 19.9025L28.12 29.4628V38.0757L26.5911 39.5829C23.8994 42.296 25.1268 45.4182 26.5911 46.9469L33.0511 53.4066C34.2139 54.5694 35.4629 55 36.6472 55C38.1761 55 39.5757 54.2464 40.4155 53.4066L46.2295 47.5714H53.96C57.6207 47.5714 59.4726 45.289 60.1401 43.0496C62.5734 42.4036 63.9084 40.5519 64.4468 38.7432C67.7844 37.8819 69.0334 34.7166 69.0334 32.4988V26.0391H67.7629L68.4089 25.4147ZM64.7267 32.4988C64.7267 33.4678 64.3176 34.652 62.5734 34.652H60.42V36.8053C60.42 37.7742 60.0109 38.9585 58.2667 38.9585H56.1133V41.1117C56.1133 42.0807 55.7042 43.2649 53.96 43.2649H44.4638L37.4009 50.3275C36.7333 50.9519 36.3457 50.5859 36.1089 50.349L29.6704 43.9324C29.0459 43.2649 29.412 42.8774 29.6488 42.6405L32.4266 39.8413V31.2284L36.7333 26.922V30.3456C36.7333 32.951 38.456 36.8053 43.1933 36.8053C47.9307 36.8053 49.6533 32.951 49.6533 30.3456H64.7267V32.4988ZM65.3512 22.3571L61.6905 26.0391H45.3467V30.3456C45.3467 31.3145 44.9375 32.4988 43.1933 32.4988C41.4491 32.4988 41.04 31.3145 41.04 30.3456V23.8859C41.04 22.8954 41.4061 19.5795 45.3467 19.5795H52.6895L57.5991 14.6701C58.2667 14.0457 58.6543 14.4117 58.8912 14.6486L65.3296 21.0652C65.9541 21.7327 65.588 22.1203 65.3512 22.3571Z" fill="black"/>
</svg>
