<svg width="104" height="79" viewBox="0 0 104 79" fill="none" xmlns="http://www.w3.org/2000/svg">
<path d="M92.1642 1.29602C91.0523 0.577042 89.7807 0.142077 88.4613 0.0293564C87.1418 -0.0833642 85.8148 0.129612 84.597 0.649563L44.6915 16.3584C43.7468 16.7428 42.7364 16.9403 41.7164 16.9402H16.1692C14.025 16.9402 11.9686 17.7916 10.4525 19.307C8.93634 20.8225 8.08458 22.8778 8.08458 25.0209V25.6674H0V45.0611H8.08458V45.9015C8.13524 48.0108 9.00932 50.0167 10.52 51.4904C12.0307 52.9641 14.0582 53.7888 16.1692 53.7882L25.8706 74.3455C26.5276 75.7299 27.5618 76.9009 28.8546 77.7242C30.1474 78.5476 31.6462 78.9897 33.1791 79H37.2537C39.3867 78.9829 41.4264 78.1241 42.9286 76.6105C44.4308 75.0969 45.2737 73.0513 45.2736 70.9193V54.564L84.597 70.2728C85.5642 70.6576 86.5958 70.855 87.6368 70.8547C89.2519 70.8286 90.8246 70.3346 92.1642 69.4325C93.228 68.7145 94.1054 67.7538 94.724 66.6296C95.3426 65.5055 95.6845 64.2503 95.7214 62.9679V7.95451C95.7155 6.63908 95.3884 5.34498 94.7684 4.1846C94.1485 3.02422 93.2546 2.03266 92.1642 1.29602ZM37.1891 25.0209V45.9015H16.1692V25.0209H37.1891ZM37.1891 70.9193H33.1144L25.1592 53.7882H37.1891V70.9193ZM47.6667 46.8711C46.8988 46.4789 46.098 46.1544 45.2736 45.9015V24.5684C46.0901 24.4 46.8907 24.1621 47.6667 23.8573L87.6368 7.95451V62.774L47.6667 46.8711ZM95.9154 27.2835V43.4449C98.0596 43.4449 100.116 42.5936 101.632 41.0781C103.148 39.5627 104 37.5074 104 35.3642C104 33.2211 103.148 31.1657 101.632 29.6503C100.116 28.1349 98.0596 27.2835 95.9154 27.2835Z" fill="black"/>
</svg>
